<svg xmlns="http://www.w3.org/2000/svg" viewBox="0 0 64 64" width="64" height="64">
  <!-- Horns -->
  <path d="M 20 22 C 18 14 12 14 8 18 C 13 22 17 23 20 22 Z" fill="#f1f5f9" stroke="#000000" stroke-width="2" stroke-linejoin="round" />
  <path d="M 44 22 C 46 14 52 14 56 18 C 51 22 47 23 44 22 Z" fill="#f1f5f9" stroke="#000000" stroke-width="2" stroke-linejoin="round" />
  
  <!-- Ears -->
  <path d="M 17 26 C 9 26 8 36 17 31 Z" fill="#fda4af" stroke="#000000" stroke-width="2" stroke-linejoin="round" />
  <path d="M 47 26 C 55 26 56 36 47 31 Z" fill="#fda4af" stroke="#000000" stroke-width="2" stroke-linejoin="round" />

  <!-- Face/Head -->
  <rect x="16" y="20" width="32" height="28" rx="10" ry="10" fill="#ffffff" stroke="#000000" stroke-width="3" />
  
  <!-- Cow Spots on Head -->
  <path d="M 16 28 C 22 28 22 21 16 21 Z" fill="#1e293b" />
  <path d="M 48 38 C 42 38 42 45 48 45 Z" fill="#1e293b" />
  <path d="M 36 20 C 36 25 28 25 28 20 Z" fill="#1e293b" />

  <!-- Eyes -->
  <circle cx="25" cy="31" r="3" fill="#000000" />
  <circle cx="25" cy="30" r="1" fill="#ffffff" />
  <circle cx="39" cy="31" r="3" fill="#000000" />
  <circle cx="39" cy="30" r="1" fill="#ffffff" />
  
  <!-- Blush -->
  <ellipse cx="21" cy="36" rx="3" ry="1.5" fill="#f43f5e" opacity="0.4" />
  <ellipse cx="43" cy="36" rx="3" ry="1.5" fill="#f43f5e" opacity="0.4" />

  <!-- Snout -->
  <rect x="20" y="36" width="24" height="13" rx="6" fill="#fda4af" stroke="#000000" stroke-width="2" />
  
  <!-- Nostrils -->
  <circle cx="27" cy="42" r="2" fill="#e11d48" />
  <circle cx="37" cy="42" r="2" fill="#e11d48" />
</svg>
